# xmcd CD database file
#
# Track frame offsets:
#	150
#	10957
#	22582
#	45307
#	56557
#	70582
#	80107
#	95857
#	112357
#	124957
#	137182
#	153232
#	169807
#	183232
#	204607
#	225682
#	237082
#	256882
#	265657
#	278257
#
# Disc length: 3843 seconds
#
# Revision: 8
# Processed by: cddbd v1.5.2PL0 Copyright (c) Steve Scherf et al.
# Submitted via: CDex 1.79
#
DISCID=0d0f0114
DTITLE=Johnny Cash - The Christmas Collection
DYEAR=2003
DGENRE=Country
TTITLE0=Blue Christmas
TTITLE1=The Little Drummer Boy
TTITLE2=The Christmas Spirit
TTITLE3=I Heard The Bells On Christmas Day
TTITLE4=Away In A Manger
TTITLE5=Joy To The World
TTITLE6=Silent Night
TTITLE7=Christmas As I Knew It
TTITLE8=Ringing The Bells For Jim
TTITLE9=Here Was A Man
TTITLE10=The Gifts They Gave
TTITLE11=It Came Upon A Midnight Clear
TTITLE12=O Come All Ye Faithfull
TTITLE13=Little Grey Donkey
TTITLE14=The Christmas Guest
TTITLE15=Hark! The Herald Angels Sing
TTITLE16=The Ballad Of The Harp Weaver
TTITLE17=Who Kept The Sheep
TTITLE18=Peace In The Valley
TTITLE19=That Christmasy Feeling
EXTD=YEAR: 2003
EXTT0=
EXTT1=
EXTT2=
EXTT3=
EXTT4=
EXTT5=
EXTT6=
EXTT7=
EXTT8=
EXTT9=
EXTT10=
EXTT11=
EXTT12=
EXTT13=
EXTT14=
EXTT15=
EXTT16=
EXTT17=
EXTT18=
EXTT19=
PLAYORDER=
